<?xml version="1.0" standalone="no"?>
<!DOCTYPE svg PUBLIC "-//W3C//DTD SVG 20010904//EN"
 "http://www.w3.org/TR/2001/REC-SVG-20010904/DTD/svg10.dtd">
<svg version="1.0" xmlns="http://www.w3.org/2000/svg"
 width="512.000000pt" height="512.000000pt" viewBox="0 0 512.000000 512.000000"
 preserveAspectRatio="xMidYMid meet">
<metadata>
Created by potrace 1.16, written by Peter Selinger 2001-2019
</metadata>
<g transform="translate(0.000000,512.000000) scale(0.100000,-0.100000)"
fill="#000000" stroke="none">
<path d="M2215 5101 c-66 -10 -156 -26 -200 -35 -94 -20 -325 -88 -325 -96 0
-3 412 -417 915 -920 l915 -915 -2 904 -3 904 -93 33 c-122 45 -298 90 -447
116 -174 30 -589 35 -760 9z"/>
<path d="M1220 4746 c-299 -182 -586 -455 -779 -741 -235 -348 -374 -719 -426
-1135 -17 -142 -20 -450 -5 -585 13 -112 51 -320 61 -337 6 -9 320 298 1041
1019 l1033 1033 -405 405 c-223 223 -407 405 -410 405 -3 0 -53 -29 -110 -64z"/>
<path d="M3840 3190 l0 -1590 551 2 552 3 33 93 c45 123 90 298 117 452 29
172 32 613 4 789 -46 290 -124 533 -253 787 -199 391 -505 732 -879 979 -62
41 -116 75 -119 75 -3 0 -6 -716 -6 -1590z"/>
<path d="M743 2088 c-293 -293 -533 -538 -533 -544 0 -20 82 -187 141 -286
206 -347 489 -641 833 -862 48 -31 90 -55 92 -53 2 2 3 515 2 1140 l-3 1137
-532 -532z"/>
<path d="M1602 729 l3 -552 95 -34 c124 -45 293 -88 450 -116 172 -29 613 -32
789 -4 290 46 533 124 787 253 391 199 732 505 979 879 41 62 75 116 75 119 0
3 -716 6 -1590 6 l-1590 0 2 -551z"/>
</g>
</svg>
